<?xml version="1.0" encoding="UTF-8" standalone="no"?>
<svg
   xmlns:dc="http://purl.org/dc/elements/1.1/"
   xmlns:cc="http://creativecommons.org/ns#"
   xmlns:rdf="http://www.w3.org/1999/02/22-rdf-syntax-ns#"
   xmlns:svg="http://www.w3.org/2000/svg"
   xmlns="http://www.w3.org/2000/svg"
   xmlns:sodipodi="http://sodipodi.sourceforge.net/DTD/sodipodi-0.dtd"
   xmlns:inkscape="http://www.inkscape.org/namespaces/inkscape"
   width="213.731pt"
   height="66.731987pt"
   viewBox="0 0 213.731 66.73199"
   version="1.2"
   id="svg49"
   sodipodi:docname="Uni_pi_logo_NEW_main (1)[780].svg"
   inkscape:version="0.92.1 r15371">
  <metadata
     id="metadata55">
    <rdf:RDF>
      <cc:Work
         rdf:about="">
        <dc:format>image/svg+xml</dc:format>
        <dc:type
           rdf:resource="http://purl.org/dc/dcmitype/StillImage" />
        <dc:title></dc:title>
      </cc:Work>
    </rdf:RDF>
  </metadata>
  <defs
     id="defs53" />
  <sodipodi:namedview
     pagecolor="#ffffff"
     bordercolor="#666666"
     borderopacity="1"
     objecttolerance="10"
     gridtolerance="10"
     guidetolerance="10"
     inkscape:pageopacity="0"
     inkscape:pageshadow="2"
     inkscape:window-width="1920"
     inkscape:window-height="1017"
     id="namedview51"
     showgrid="false"
     fit-margin-top="1.1"
     fit-margin-bottom="0"
     inkscape:zoom="3.5322413"
     inkscape:cx="112.95458"
     inkscape:cy="44.573334"
     inkscape:window-x="-8"
     inkscape:window-y="-8"
     inkscape:window-maximized="1"
     inkscape:current-layer="svg49" />
  <g
     id="surface9909"
     transform="translate(6.3698931,-37.417255)">
    <path
       style="fill:#3870bf;fill-opacity:1;fill-rule:nonzero;stroke:none"
       d="m 54.574219,70.484375 v -20 h 4.441406 v 20 c 0,1.839844 0.65625,3.414063 1.960938,4.714844 1.304687,1.300781 2.871093,1.960937 4.714843,1.960937 1.839844,0 3.40625,-0.660156 4.707032,-1.960937 1.3125,-1.300781 1.960937,-2.875 1.960937,-4.714844 v -20 h 4.445313 v 20 c 0,3.070313 -1.085938,5.691406 -3.253907,7.859375 -2.175781,2.171875 -4.789062,3.253906 -7.859375,3.253906 -3.070312,0 -5.6875,-1.082031 -7.863281,-3.253906 -2.164062,-2.167969 -3.253906,-4.789062 -3.253906,-7.859375"
       id="path10"
       inkscape:connector-curvature="0" />
    <path
       style="fill:#3870bf;fill-opacity:1;fill-rule:nonzero;stroke:none"
       d="m 96.804688,70.484375 c 0,-1.835937 -0.652344,-3.402344 -1.949219,-4.707031 -1.308594,-1.308594 -2.878906,-1.957031 -4.714844,-1.957031 -1.835937,0 -3.40625,0.648437 -4.714844,1.957031 -1.304687,1.304687 -1.953125,2.871094 -1.953125,4.707031 V 81.597656 H 79.023438 V 59.371094 h 4.449218 v 2.199219 c 1.90625,-1.460938 4.132813,-2.199219 6.667969,-2.199219 3.0625,0 5.6875,1.089844 7.851563,3.257812 2.175782,2.171875 3.257812,4.792969 3.257812,7.855469 v 11.113281 h -4.445312 z m 0,0"
       id="path12"
       inkscape:connector-curvature="0" />
    <path
       style="fill:#3870bf;fill-opacity:1;fill-rule:nonzero;stroke:none"
       d="m 103.47656,59.371094 h 4.44532 v 22.226562 h -4.44532 z m 0,-8.886719 h 4.44532 v 4.441406 h -4.44532 z m 0,0"
       id="path14"
       inkscape:connector-curvature="0" />
    <path
       style="fill:#3870bf;fill-opacity:1;fill-rule:nonzero;stroke:none"
       d="m 121.25781,54.925781 h -6.66797 v 8.894532 h 6.66797 c 1.23047,0 2.27344,-0.433594 3.14063,-1.296875 0.87109,-0.875 1.30469,-1.921875 1.30469,-3.152344 0,-1.230469 -0.4336,-2.277344 -1.30469,-3.136719 -0.86719,-0.871094 -1.91016,-1.308594 -3.14063,-1.308594 m 0,13.339844 h -6.66797 v 13.332031 h -4.44531 V 50.484375 h 11.11328 c 2.45703,0 4.55469,0.867188 6.29297,2.59375 1.73047,1.738281 2.59766,3.832031 2.59766,6.292969 0,2.460937 -0.86719,4.5625 -2.59766,6.292969 -1.73828,1.738281 -3.83594,2.601562 -6.29297,2.601562"
       id="path16"
       inkscape:connector-curvature="0" />
    <path
       style="fill:#3870bf;fill-opacity:1;fill-rule:nonzero;stroke:none"
       d="m 132.36719,59.371094 h 4.44922 v 22.226562 h -4.44922 z m 0,-8.886719 h 4.44922 v 4.441406 h -4.44922 z m 0,0"
       id="path18"
       inkscape:connector-curvature="0" />
    <path
       style="fill:#3870bf;fill-opacity:1;fill-rule:nonzero;stroke:none"
       d="m 43.085938,72.25 c 1.609375,-1.675781 2.554687,-3.945312 2.554687,-6.359375 0,-5.078125 -4.132812,-9.222656 -9.21875,-9.222656 -0.1875,0 -0.371094,0.0078 -0.558594,0.02344 l -0.777343,-0.777343 7.550781,-7.546875 -6.300781,-6.292969 -8.359375,8.355469 h -4.710938 l -6.40625,-6.402344 -6.296875,6.292969 6.210938,6.210937 -0.132813,0.136719 h -0.04297 c -5.082031,0 -9.222656,4.144531 -9.222656,9.222656 0,2.414063 0.949219,4.683594 2.554688,6.359375 C 6.671875,73.6875 4.375,76.949219 4.375,80.703125 c 0,5.082031 4.136719,9.214844 9.21875,9.214844 1.234375,0 2.449219,-0.25 3.574219,-0.722656 l 0.109375,0.07813 c -0.05078,0.386718 -0.07422,0.773437 -0.07422,1.15625 0,5.09375 4.136719,9.222656 9.21875,9.222656 h 0.175781 c 5.082032,0 9.222657,-4.128906 9.222657,-9.222656 0,-0.382813 -0.02734,-0.769532 -0.07422,-1.15625 l 0.109375,-0.07813 c 1.121094,0.472656 2.335937,0.722656 3.570312,0.722656 5.082032,0 9.21875,-4.132813 9.21875,-9.214844 0,-3.753906 -2.296875,-7.015625 -5.558593,-8.453125"
       id="path20"
       inkscape:connector-curvature="0" />
    <path
       style="fill:#ffffff;fill-opacity:1;fill-rule:nonzero;stroke:none"
       d="M 25.453125,56.175781 V 53.59375 h -3.496094 l -5.097656,-5.097656 -1.828125,1.824219 5.859375,5.855468 z m 0,0"
       id="path22"
       inkscape:connector-curvature="0" />
    <path
       style="fill:#ffffff;fill-opacity:1;fill-rule:nonzero;stroke:none"
       d="m 39.425781,84.320313 c -1.996093,0 -3.617187,-1.621094 -3.617187,-3.617188 0,-2 1.621094,-3.621094 3.617187,-3.621094 1.996094,0 3.617188,1.621094 3.617188,3.621094 0,1.996094 -1.621094,3.617188 -3.617188,3.617188 m -6.0625,-3.617188 c 0,0.914063 0.210938,1.78125 0.582032,2.558594 l -3.390625,2.597656 c -0.738282,-0.644531 -1.625,-1.101562 -2.601563,-1.324219 V 82.355469 C 30.644531,81.738281 32.65625,79.332031 32.65625,76.453125 32.65625,75.1875 32.261719,74 31.589844,73.03125 l 1.765625,-1.925781 c 0.839844,0.492187 1.804687,0.792969 2.839844,0.835937 l 0.703125,3.257813 c -2.082032,0.964844 -3.535157,3.0625 -3.535157,5.503906 m -6.765625,13.351563 c -0.03125,0 -0.05469,-0.0078 -0.08984,-0.01172 -0.02734,0.0039 -0.05469,0.01172 -0.08594,0.01172 -1.996094,0 -3.621094,-1.625 -3.621094,-3.621094 0,-1.996094 1.625,-3.621094 3.621094,-3.621094 0.03125,0 0.05859,0.0039 0.08594,0.0039 0.03516,0 0.05859,-0.0039 0.08984,-0.0039 2,0 3.621094,1.625 3.621094,3.621094 0,1.996094 -1.621094,3.621094 -3.621094,3.621094 M 19.078125,83.261719 c 0.367188,-0.777344 0.574219,-1.644531 0.574219,-2.558594 0,-2.441406 -1.449219,-4.539062 -3.527344,-5.503906 l 0.699219,-3.257813 c 1.035156,-0.04297 2.003906,-0.34375 2.839844,-0.835937 l 1.769531,1.925781 C 20.757813,74 20.363281,75.1875 20.363281,76.453125 c 0,2.878906 2.015625,5.285156 4.703125,5.902344 v 2.179687 c -0.980468,0.222657 -1.867187,0.679688 -2.601562,1.324219 z m -5.484375,1.058594 c -1.996094,0 -3.617187,-1.621094 -3.617187,-3.617188 0,-2 1.621093,-3.621094 3.617187,-3.621094 1.996094,0 3.621094,1.621094 3.621094,3.621094 0,1.996094 -1.625,3.617188 -3.621094,3.617188 M 12.976563,65.890625 c 0,-1.996094 1.621093,-3.617187 3.621093,-3.617187 1.761719,0 3.230469,1.265625 3.550782,2.941406 v 1.363281 c -0.140625,0.714844 -0.492188,1.367188 -0.992188,1.867188 l -0.0039,0.0078 c -0.65625,0.65625 -1.558594,1.0625 -2.554688,1.0625 -0.230468,0 -0.453125,-0.03125 -0.667968,-0.07422 l -0.132813,-0.02344 C 14.1875,69.050781 12.976563,67.613281 12.976563,65.890625 m 17.242187,10.5625 c 0,1.996094 -1.621094,3.621094 -3.621094,3.621094 -0.03125,0 -0.05469,-0.0078 -0.08984,-0.0078 -0.02734,0 -0.05469,0.0078 -0.08594,0.0078 -1.996094,0 -3.621094,-1.625 -3.621094,-3.621094 0,-0.996094 0.402344,-1.898437 1.054688,-2.554687 l 0.01563,-0.0078 c 0.65625,-0.648437 1.558594,-1.050781 2.550781,-1.050781 0.03125,0 0.05859,0 0.08594,0 0.03516,0 0.05859,0 0.08984,0 0.996094,0 1.898438,0.402344 2.550782,1.050781 l 0.01172,0.0078 c 0.65625,0.65625 1.058594,1.558593 1.058594,2.554687 m -0.621094,-5.261719 c -0.890625,-0.503906 -1.90625,-0.796875 -3,-0.796875 -0.03125,0 -0.05469,0.0078 -0.08984,0.0078 -0.02734,0 -0.05469,-0.0078 -0.08594,-0.0078 -1.089844,0 -2.113281,0.292969 -2.996094,0.796875 l -1.789062,-1.945312 c 0.40625,-0.609375 0.707031,-1.296875 0.867187,-2.027344 h 8.007813 c 0.164062,0.730469 0.460937,1.417969 0.871094,2.027344 z m -8.15625,-11.195312 h 9.601563 l 1.375,1.375 C 31.5,62.191406 30.820313,63.277344 30.527344,64.507813 H 22.492188 C 22.167969,63.140625 21.382813,61.964844 20.3125,61.121094 Z m 18.597657,5.894531 c 0,1.722656 -1.207032,3.160156 -2.816407,3.527344 l -0.132812,0.02344 c -0.21875,0.04297 -0.4375,0.07422 -0.667969,0.07422 -0.996094,0 -1.898437,-0.40625 -2.558594,-1.0625 v -0.0078 c -0.5,-0.5 -0.851562,-1.152344 -0.996093,-1.867188 V 65.21486 c 0.324218,-1.675781 1.792968,-2.941406 3.554687,-2.941406 2,0 3.617188,1.621093 3.617188,3.617187 m -0.492188,8.753906 -0.6875,-3.203125 c 2.128906,-0.953125 3.621094,-3.074218 3.621094,-5.550781 0,-3.335937 -2.714844,-6.0625 -6.058594,-6.0625 -0.566406,0 -1.113281,0.101563 -1.640625,0.25 L 32.113281,57.414063 H 29.125 L 38.167969,48.367188 36.335938,46.542969 25.46875,57.414063 H 20.367188 L 17.8125,59.96875 c -0.394531,-0.08203 -0.796875,-0.140625 -1.214844,-0.140625 -3.34375,0 -6.058593,2.726563 -6.058593,6.0625 0,2.476563 1.492187,4.597656 3.621093,5.550781 l -0.6875,3.203125 c -3.285156,0.07031 -5.9375,2.753907 -5.9375,6.058594 0,3.339844 2.71875,6.058594 6.058594,6.058594 1.441406,0 2.773438,-0.511719 3.8125,-1.359375 l 3.449219,2.632812 c -0.3125,0.734375 -0.492188,1.546875 -0.492188,2.398438 0,3.339844 2.71875,6.054687 6.058594,6.054687 0.03125,0 0.05859,-0.0039 0.08594,-0.0039 0.03516,0 0.05859,0.0039 0.08984,0.0039 3.34375,0 6.058594,-2.714843 6.058594,-6.054687 0,-0.851563 -0.175781,-1.664063 -0.496094,-2.398438 l 3.453125,-2.632812 c 1.042969,0.847656 2.367188,1.359375 3.8125,1.359375 3.34375,0 6.058594,-2.71875 6.058594,-6.058594 0,-3.304687 -2.652344,-5.988281 -5.9375,-6.058594"
       id="path24"
       inkscape:connector-curvature="0" />
    <path
       style="fill:#3870bf;fill-opacity:1;fill-rule:nonzero;stroke:none"
       d="M 53.808594,95.707031 H 55.3125 v -1.527343 h -1.503906 z m 0,0"
       id="path26"
       inkscape:connector-curvature="0" />
    <path
       style="fill:#3870bf;fill-opacity:1;fill-rule:nonzero;stroke:none"
       d="m 58.34375,85.074219 h -1.511719 v 3.039062 h -0.757812 v 1.527344 h 0.757812 v 2.273438 c 0,1.046875 0.375,1.941406 1.113282,2.683593 0.742187,0.742188 1.636718,1.109375 2.675781,1.109375 V 94.179688 C 60,94.179688 59.460938,93.972656 59.019531,93.515625 58.574219,93.066406 58.34375,92.535156 58.34375,91.914063 v -2.273438 h 2.277344 V 88.113281 H 58.34375 Z m 0,0"
       id="path28"
       inkscape:connector-curvature="0" />
    <path
       style="fill:#3870bf;fill-opacity:1;fill-rule:nonzero;stroke:none"
       d="m 63.90625,91.148438 c 0.113281,-0.3125 0.304688,-0.585938 0.550781,-0.851563 0.445313,-0.445312 0.988282,-0.65625 1.613282,-0.65625 0.621093,0 1.152343,0.210938 1.605468,0.65625 0.261719,0.265625 0.4375,0.539063 0.542969,0.851563 z m 2.164063,-3.035157 c -1.050782,0 -1.941407,0.371094 -2.6875,1.109375 -0.730469,0.742188 -1.113282,1.636719 -1.113282,2.691407 0,1.046875 0.382813,1.941406 1.113282,2.683593 0.746093,0.742188 1.636718,1.109375 2.6875,1.109375 1.046875,0 1.945312,-0.371093 2.683593,-1.117187 l 0.367188,-0.414063 -1.367188,-0.757812 c -0.01172,0.03516 -0.05078,0.07031 -0.07813,0.09766 -0.453125,0.457031 -0.984375,0.660156 -1.605468,0.660156 -0.625,0 -1.167969,-0.203125 -1.613282,-0.660156 -0.246093,-0.253906 -0.4375,-0.535156 -0.550781,-0.84375 h 5.878906 c 0.05469,-0.25 0.07813,-0.496094 0.07813,-0.757812 0,-1.054688 -0.371093,-1.949219 -1.109375,-2.691407 -0.738281,-0.738281 -1.636718,-1.109375 -2.683593,-1.109375"
       id="path30"
       inkscape:connector-curvature="0" />
    <path
       style="fill:#3870bf;fill-opacity:1;fill-rule:nonzero;stroke:none"
       d="m 75.292969,89.640625 c 0.636719,0 1.171875,0.210938 1.613281,0.65625 0.132813,0.144531 0.265625,0.289063 0.363281,0.441406 l 1.296875,-0.792968 C 78.40625,89.6875 78.207031,89.460938 77.988281,89.222656 c -0.75,-0.738281 -1.640625,-1.109375 -2.695312,-1.109375 -1.039063,0 -1.9375,0.371094 -2.675781,1.109375 -0.742188,0.742188 -1.109375,1.636719 -1.109375,2.691407 0,1.046875 0.367187,1.941406 1.109375,2.683593 0.738281,0.742188 1.636718,1.109375 2.675781,1.109375 1.054687,0 1.945312,-0.371093 2.695312,-1.117187 0.21875,-0.226563 0.417969,-0.464844 0.578125,-0.71875 l -1.296875,-0.789063 c -0.09766,0.15625 -0.230468,0.300782 -0.363281,0.433594 -0.441406,0.457031 -0.976562,0.660156 -1.613281,0.660156 -0.617188,0 -1.148438,-0.203125 -1.601563,-0.660156 -0.445312,-0.449219 -0.667968,-0.980469 -0.667968,-1.601562 0,-0.632813 0.222656,-1.164063 0.667968,-1.617188 0.453125,-0.445312 0.984375,-0.65625 1.601563,-0.65625"
       id="path32"
       inkscape:connector-curvature="0" />
    <path
       style="fill:#3870bf;fill-opacity:1;fill-rule:nonzero;stroke:none"
       d="m 84.074219,88.113281 c -0.855469,0 -1.613281,0.25 -2.269531,0.753907 v -3.792969 h -1.511719 v 10.632812 h 1.511719 v -3.792968 c 0,-0.632813 0.222656,-1.164063 0.671875,-1.617188 0.445312,-0.445312 0.976562,-0.65625 1.597656,-0.65625 0.636719,0 1.175781,0.210938 1.621094,0.65625 0.445312,0.453125 0.664062,0.984375 0.664062,1.617188 v 3.792968 h 1.511719 v -3.792968 c 0,-1.054688 -0.371094,-1.949219 -1.101563,-2.691407 -0.757812,-0.738281 -1.636718,-1.109375 -2.695312,-1.109375"
       id="path34"
       inkscape:connector-curvature="0" />
    <path
       style="fill:#3870bf;fill-opacity:1;fill-rule:nonzero;stroke:none"
       d="m 93.464844,88.113281 c -0.855469,0 -1.621094,0.25 -2.28125,0.753907 v -0.753907 h -1.511719 v 7.59375 h 1.511719 v -3.792968 c 0,-0.632813 0.238281,-1.164063 0.675781,-1.617188 0.4375,-0.445312 0.976563,-0.65625 1.605469,-0.65625 0.628906,0 1.15625,0.210938 1.617187,0.65625 0.433594,0.453125 0.664063,0.984375 0.664063,1.617188 v 3.792968 h 1.507812 v -3.792968 c 0,-1.054688 -0.371093,-1.949219 -1.109375,-2.691407 -0.738281,-0.738281 -1.640625,-1.109375 -2.679687,-1.109375"
       id="path36"
       inkscape:connector-curvature="0" />
    <path
       style="fill:#3870bf;fill-opacity:1;fill-rule:nonzero;stroke:none"
       d="m 104.30078,93.515625 c -0.44531,0.457031 -0.96875,0.660156 -1.60156,0.660156 -0.62891,0 -1.16406,-0.203125 -1.60547,-0.660156 -0.45312,-0.449219 -0.67187,-0.980469 -0.67187,-1.601562 0,-0.632813 0.21875,-1.164063 0.67187,-1.617188 0.44141,-0.445312 0.97656,-0.65625 1.60547,-0.65625 0.63281,0 1.15625,0.210938 1.60156,0.65625 0.44531,0.453125 0.67969,0.984375 0.67969,1.617188 0,0.621093 -0.23438,1.152343 -0.67969,1.601562 m -1.60156,-5.402344 c -1.04688,0 -1.9375,0.371094 -2.67969,1.109375 -0.734374,0.742188 -1.109374,1.636719 -1.109374,2.691407 0,1.046875 0.375,1.941406 1.109374,2.683593 0.74219,0.742188 1.63281,1.109375 2.67969,1.109375 1.03906,0 1.9375,-0.367187 2.67969,-1.109375 0.74218,-0.742187 1.10937,-1.636718 1.10937,-2.683593 0,-1.054688 -0.36719,-1.949219 -1.10937,-2.691407 -0.74219,-0.738281 -1.64063,-1.109375 -2.67969,-1.109375"
       id="path38"
       inkscape:connector-curvature="0" />
    <path
       style="fill:#3870bf;fill-opacity:1;fill-rule:nonzero;stroke:none"
       d="m 108.13281,95.707031 h 1.52344 V 85.074219 h -1.52344 z m 0,0"
       id="path40"
       inkscape:connector-curvature="0" />
    <path
       style="fill:#3870bf;fill-opacity:1;fill-rule:nonzero;stroke:none"
       d="m 116.71094,93.515625 c -0.44922,0.457031 -0.99219,0.660156 -1.61328,0.660156 -0.6211,0 -1.16016,-0.203125 -1.60938,-0.660156 -0.4375,-0.449219 -0.66406,-0.980469 -0.66406,-1.601562 0,-0.632813 0.22656,-1.164063 0.66406,-1.617188 0.44922,-0.445312 0.98828,-0.65625 1.60938,-0.65625 0.62109,0 1.16406,0.210938 1.61328,0.65625 0.4375,0.453125 0.66406,0.984375 0.66406,1.617188 0,0.621093 -0.22656,1.152343 -0.66406,1.601562 m -1.61328,-5.402344 c -1.04297,0 -1.94141,0.371094 -2.67969,1.109375 -0.74219,0.742188 -1.11328,1.636719 -1.11328,2.691407 0,1.046875 0.37109,1.941406 1.11328,2.683593 0.73828,0.742188 1.63672,1.109375 2.67969,1.109375 1.05078,0 1.94531,-0.367187 2.6914,-1.109375 0.73438,-0.742187 1.10938,-1.636718 1.10938,-2.683593 0,-1.054688 -0.375,-1.949219 -1.10938,-2.691407 -0.74609,-0.738281 -1.64062,-1.109375 -2.6914,-1.109375"
       id="path42"
       inkscape:connector-curvature="0" />
    <path
       style="fill:#3870bf;fill-opacity:1;fill-rule:nonzero;stroke:none"
       d="m 125.94531,93.515625 c -0.4414,0.457031 -0.98047,0.660156 -1.60547,0.660156 -0.63671,0 -1.16406,-0.203125 -1.60937,-0.660156 -0.44531,-0.449219 -0.67188,-0.980469 -0.67188,-1.601562 0,-0.632813 0.22657,-1.164063 0.67188,-1.617188 0.44531,-0.445312 0.97266,-0.65625 1.60937,-0.65625 0.625,0 1.16407,0.210938 1.60547,0.65625 0.44532,0.453125 0.66797,0.984375 0.66797,1.617188 0,0.621093 -0.22265,1.152343 -0.66797,1.601562 m 0.66797,-4.648437 c -0.64844,-0.503907 -1.41015,-0.753907 -2.27344,-0.753907 -1.05078,0 -1.94531,0.371094 -2.6875,1.109375 -0.73828,0.742188 -1.10156,1.636719 -1.10156,2.691407 0,1.046875 0.36328,1.941406 1.10156,2.683593 0.74219,0.742188 1.63672,1.109375 2.6875,1.109375 0.86329,0 1.625,-0.253906 2.27344,-0.753906 0,0.617188 -0.22265,1.144531 -0.66797,1.597656 -0.4414,0.457032 -0.98047,0.667969 -1.60547,0.667969 v 1.523438 c 1.04688,0 1.94141,-0.371094 2.67188,-1.113282 0.74609,-0.738281 1.10937,-1.640625 1.10937,-2.6875 v -6.828125 h -1.50781 z m 0,0"
       id="path44"
       inkscape:connector-curvature="0" />
    <path
       style="fill:#3870bf;fill-opacity:1;fill-rule:nonzero;stroke:none"
       d="m 134.50781,88.113281 -1.6914,3.800782 -1.71875,-3.800782 h -1.625 l 2.51171,5.6875 -1.52343,3.417969 h 1.67968 l 4.00391,-9.105469 z m 0,0"
       id="path46"
       inkscape:connector-curvature="0" />
  </g>
</svg>
