<svg xmlns="http://www.w3.org/2000/svg" viewBox="0 0 207.4 77.21"><defs><style>.cls-1{fill:#231f20;}.cls-2{fill:#1275bc;}.cls-3{fill:#3d519e;}</style></defs><title>unipi-logo-vertical-cmyk</title><g id="Layer_2" data-name="Layer 2"><g id="Layer_1-2" data-name="Layer 1"><path class="cls-1" d="M13.39,66.24c0,1.5,0,3.29,0,4.53H9.73c-.06-.42-.09-1.29-.11-2-.87,1.62-2.29,2.34-4.44,2.34-3,0-5.18-1.72-5.18-5.76V55.18H3.76V64.6c0,1.83.57,3.41,2.68,3.41,2.27,0,3.18-1.23,3.18-4.59V55.18h3.77Z"/><path class="cls-1" d="M16.77,59.11c0-1.33,0-2.76,0-3.93h3.65c.08.43.13,1.69.15,2.18a4.78,4.78,0,0,1,4.65-2.54c3.06,0,5.18,2,5.18,6v9.95H26.6V61.25c0-2-.7-3.33-2.76-3.33-2.21,0-3.3,1.43-3.3,4.31v8.54H16.77Z"/><path class="cls-1" d="M33.69,48.59h3.77v3.69H33.69Zm0,6.59h3.77V70.77H33.69Z"/><path class="cls-1" d="M44.57,69.2v7.59H40.82V59c0-1.27,0-2.54,0-3.78h3.65a19.52,19.52,0,0,1,.13,2.12,5.06,5.06,0,0,1,4.72-2.48c3.53,0,6.21,3,6.21,7.76,0,5.52-3,8.55-6.79,8.55C46.4,71.13,45.2,70.23,44.57,69.2Zm7.09-6.47c0-3-1.27-4.84-3.53-4.84-2.71,0-3.72,1.73-3.72,5.09,0,3.21.89,5.11,3.53,5.11C50.41,68.09,51.66,66.13,51.66,62.73Z"/><path class="cls-1" d="M57.92,48.59h3.77v3.69H57.92Zm0,6.59h3.77V70.77H57.92Z"/><path class="cls-1" d="M68.09,55.19h2.8V50.47H73v4.72h3.57V57H73v9.64c0,1.64.37,2.53,1.82,2.53a5.68,5.68,0,0,0,1.5-.16v1.67a6.3,6.3,0,0,1-2.11.28c-2.18,0-3.28-1.11-3.28-3.64V57h-2.8Z"/><path class="cls-1" d="M79.53,63.29c0,3.62,1.85,6,4.67,6a4,4,0,0,0,4.15-2.69h2.09a6.11,6.11,0,0,1-6.31,4.51c-4.8,0-6.7-4-6.7-8,0-4.53,2.26-8.29,6.88-8.29,4.89,0,6.47,4.09,6.47,7.19,0,.45,0,.87,0,1.28Zm9.13-1.61c0-2.84-1.53-5.09-4.4-5.09s-4.33,2.08-4.64,5.09Z"/><path class="cls-1" d="M105.65,66.08c-.71,2.71-2.52,5-6.21,5-4.07,0-6.78-3-6.78-8.07,0-4.32,2.37-8.22,7-8.22a5.68,5.68,0,0,1,6,5.08h-2.08a3.87,3.87,0,0,0-4-3.26c-3,0-4.77,2.6-4.77,6.32s1.63,6.33,4.64,6.33c2.12,0,3.38-1.1,4.11-3.21Z"/><path class="cls-1" d="M110.38,48v9.65a5.34,5.34,0,0,1,5-2.84c2.33,0,5.24,1.23,5.24,6v9.91h-2.06V61.21c0-2.88-1.27-4.5-3.71-4.5-3,0-4.48,1.88-4.48,5.43v8.6h-2.06V48Z"/><path class="cls-1" d="M124.72,59.11c0-1.36,0-2.69,0-3.92h2c.06.48.1,2.33.08,2.77a5,5,0,0,1,5-3.14c2.83,0,5.2,1.66,5.2,5.88v10H135V61c0-2.57-1.05-4.28-3.6-4.28-3.35,0-4.58,2.69-4.58,6v8.07h-2.07Z"/><path class="cls-1" d="M154.05,62.93c0,4.4-2.47,8.18-7.16,8.18-4.31,0-7-3.45-7-8.14,0-4.51,2.54-8.15,7.13-8.15C151.27,54.82,154.05,58.05,154.05,62.93Zm-12,0c0,3.57,1.86,6.33,4.92,6.33s4.89-2.58,4.89-6.32-1.74-6.33-5-6.33S142.09,59.32,142.09,63Z"/><path class="cls-1" d="M157,70.74V48H159V70.74Z"/><path class="cls-1" d="M176.07,62.93c0,4.4-2.47,8.18-7.16,8.18-4.31,0-7-3.45-7-8.14,0-4.51,2.54-8.15,7.13-8.15C173.29,54.82,176.07,58.05,176.07,62.93Zm-12,0c0,3.57,1.86,6.33,4.92,6.33s4.88-2.58,4.88-6.32-1.74-6.33-4.94-6.33S164.11,59.32,164.11,63Z"/><path class="cls-1" d="M191.49,69.52c0,5-2.14,7.69-6.91,7.69-4.34,0-5.92-2.44-6.25-4.69h2.11c.51,2,2.1,2.92,4.23,2.92,3.81,0,4.82-2.44,4.82-6.22V67.77c-.84,1.89-2.32,2.93-5,2.93-3.73,0-6.44-3-6.44-7.73,0-5.15,3-8.15,6.68-8.15,3.08,0,4.4,1.45,4.8,2.6,0-.81.07-1.88.1-2.23h2c0,.72-.06,3-.06,4.5Zm-11.31-6.63c0,3.5,1.84,6,4.62,6,3.65,0,4.74-2.43,4.74-6.2s-1.1-6-4.64-6C181.64,56.66,180.18,59.43,180.18,62.89Z"/><path class="cls-1" d="M196,55.19c2.85,8.23,4.22,12.11,4.7,13.74h0c.57-1.83,1.75-5.41,4.55-13.74h2.11l-5.72,16.36c-1.62,4.58-2.76,5.66-5.74,5.66a11.7,11.7,0,0,1-1.54-.1V75.2a9.87,9.87,0,0,0,1.35.09c2.11,0,2.85-1,3.89-3.91l-5.89-16.19Z"/><path class="cls-2" d="M116.47,20.59a12.77,12.77,0,0,1-25.54,0V7.92H87.12V20.59a16.58,16.58,0,0,0,33.16,0V7.92h-3.81Z"/><path class="cls-2" d="M94.24,20.12a9.46,9.46,0,1,0,18.92,0V7.92h-3.8v12.2a5.66,5.66,0,1,1-11.31,0V0H87.12V3.8h7.12Z"/><path class="cls-3" d="M101.8,0V19.8a1.9,1.9,0,1,0,3.8,0V3.8h14.68V0H101.8Z"/></g></g></svg>