<svg xmlns="http://www.w3.org/2000/svg" viewBox="0 0 201.39 70.59" width="201.39pt" height="70.59pt"><defs><style>.cls-1{fill:#1275bc;}.cls-2{fill:#3d519e;}.cls-3{fill:#231f20;}</style></defs><title>unipi-logo-short-cmyk</title><g id="Layer_2" data-name="Layer 2"><g id="Layer_1-2" data-name="Layer 1"><path class="cls-1" d="M55.75,39.11a24.26,24.26,0,0,1-48.52,0V15H0V39.11a31.49,31.49,0,0,0,63,0V15H55.75Z"/><path class="cls-1" d="M13.52,38.22a18,18,0,0,0,35.94,0V15H42.23V38.22a10.75,10.75,0,0,1-21.49,0V0H0V7.23H13.52Z"/><path class="cls-2" d="M27.87,0V37.6a3.62,3.62,0,1,0,7.23,0V7.23H63V0H27.87Z"/><path class="cls-1" d="M55.75,39.11a24.26,24.26,0,0,1-48.52,0V15H0V39.11a31.49,31.49,0,0,0,63,0V15H55.75Z"/><path class="cls-1" d="M13.52,38.22a18,18,0,0,0,35.94,0V15H42.23V38.22a10.75,10.75,0,0,1-21.49,0V0H0V7.23H13.52Z"/><path class="cls-2" d="M27.87,0V37.6a3.62,3.62,0,1,0,7.23,0V7.23H63V0H27.87Z"/><path class="cls-3" d="M109.65,44.45c0,2.86,0,6.26.06,8.61h-7c-.11-.79-.17-2.45-.21-3.76-1.65,3.08-4.35,4.45-8.42,4.45-5.68,0-9.85-3.27-9.85-11V23.46h7.14V41.35c0,3.47,1.08,6.47,5.09,6.47,4.31,0,6-2.33,6-8.71V23.46h7.16Z"/><path class="cls-3" d="M116.07,30.92c0-2.54,0-5.24-.06-7.46H123a41.45,41.45,0,0,1,.28,4.14c1.06-2.09,3.46-4.83,8.83-4.83,5.81,0,9.84,3.81,9.84,11.39v18.9h-7.16V35c0-3.71-1.33-6.32-5.25-6.32-4.18,0-6.26,2.71-6.26,8.18V53.06h-7.16Z"/><path class="cls-3" d="M148.22,10.94h7.16v7h-7.16Zm0,12.52h7.16v29.6h-7.16Z"/><path class="cls-3" d="M168.87,50.09V64.5h-7.12V30.62c0-2.4,0-4.81-.06-7.16h6.94a35.67,35.67,0,0,1,.24,4c1.38-2.44,4.14-4.7,9-4.7,6.72,0,11.8,5.62,11.8,14.74,0,10.49-5.73,16.24-12.9,16.24C172.35,53.75,170.07,52,168.87,50.09Zm13.47-12.3c0-5.71-2.42-9.19-6.7-9.19-5.16,0-7.07,3.29-7.07,9.67,0,6.1,1.68,9.71,6.7,9.71C180,48,182.34,44.24,182.34,37.79Z"/><path class="cls-3" d="M194.23,10.94h7.16v7h-7.16Zm0,12.52h7.16v29.6h-7.16Z"/></g></g></svg>